<?xml version="1.0" encoding="utf-8" ?>
<svg baseProfile="full" height="500" version="1.1" width="500" xmlns="http://www.w3.org/2000/svg" xmlns:ev="http://www.w3.org/2001/xml-events" xmlns:xlink="http://www.w3.org/1999/xlink"><defs /><rect fill="white" height="500" width="500" x="0" y="0" /><line stroke="blue" stroke-width="4" x1="250.0" x2="250.0" y1="500" y2="494.0951" /><line stroke="blue" stroke-width="4" x1="250.0" x2="255.9049" y1="494.0951" y2="494.0951" /><line stroke="blue" stroke-width="4" x1="255.9049" x2="255.9049" y1="494.0951" y2="488.1902" /><line stroke="blue" stroke-width="4" x1="255.9049" x2="250.0" y1="488.1902" y2="488.1902" /><line stroke="blue" stroke-width="4" x1="250.0" x2="250.0" y1="488.1902" y2="482.2853" /><line stroke="blue" stroke-width="4" x1="250.0" x2="255.9049" y1="482.2853" y2="482.2853" /><line stroke="blue" stroke-width="4" x1="255.9049" x2="255.9049" y1="482.2853" y2="488.1902" /><line stroke="blue" stroke-width="4" x1="255.9049" x2="261.8098" y1="488.1902" y2="488.1902" /><line stroke="blue" stroke-width="4" x1="261.8098" x2="261.8098" y1="488.1902" y2="482.2853" /><line stroke="blue" stroke-width="4" x1="261.8098" x2="267.7147" y1="482.2853" y2="482.2853" /><line stroke="blue" stroke-width="4" x1="267.7147" x2="267.7147" y1="482.2853" y2="476.3804" /><line stroke="blue" stroke-width="4" x1="267.7147" x2="273.6196" y1="476.3804" y2="476.3804" /><line stroke="blue" stroke-width="4" x1="273.6196" x2="273.6196" y1="476.3804" y2="470.4755" /><line stroke="blue" stroke-width="4" x1="273.6196" x2="267.7147" y1="470.4755" y2="470.4755" /><line stroke="blue" stroke-width="4" x1="267.7147" x2="267.7147" y1="470.4755" y2="464.5706" /><line stroke="blue" stroke-width="4" x1="267.7147" x2="261.8098" y1="464.5706" y2="464.5706" /><line stroke="blue" stroke-width="4" x1="261.8098" x2="261.8098" y1="464.5706" y2="458.6657" /><line stroke="blue" stroke-width="4" x1="261.8098" x2="255.9049" y1="458.6657" y2="458.6657" /><line stroke="blue" stroke-width="4" x1="255.9049" x2="255.9049" y1="458.6657" y2="464.5706" /><line stroke="blue" stroke-width="4" x1="255.9049" x2="250.0" y1="464.5706" y2="464.5706" /><line stroke="blue" stroke-width="4" x1="250.0" x2="250.0" y1="464.5706" y2="458.6657" /><line stroke="blue" stroke-width="4" x1="250.0" x2="255.9049" y1="458.6657" y2="458.6657" /><line stroke="blue" stroke-width="4" x1="255.9049" x2="255.9049" y1="458.6657" y2="452.7608" /><line stroke="blue" stroke-width="4" x1="255.9049" x2="250.0" y1="452.7608" y2="452.7608" /><line stroke="blue" stroke-width="4" x1="250.0" x2="250.0" y1="452.7608" y2="446.8559" /><line stroke="blue" stroke-width="4" x1="250.0" x2="255.9049" y1="446.8559" y2="446.8559" /><line stroke="blue" stroke-width="4" x1="255.9049" x2="255.9049" y1="446.8559" y2="452.7608" /><line stroke="blue" stroke-width="4" x1="255.9049" x2="261.8098" y1="452.7608" y2="452.7608" /><line stroke="blue" stroke-width="4" x1="261.8098" x2="261.8098" y1="452.7608" y2="446.8559" /><line stroke="blue" stroke-width="4" x1="261.8098" x2="267.7147" y1="446.8559" y2="446.8559" /><line stroke="blue" stroke-width="4" x1="267.7147" x2="267.7147" y1="446.8559" y2="452.7608" /><line stroke="blue" stroke-width="4" x1="267.7147" x2="261.8098" y1="452.7608" y2="452.7608" /><line stroke="blue" stroke-width="4" x1="261.8098" x2="261.8098" y1="452.7608" y2="458.6657" /><line stroke="blue" stroke-width="4" x1="261.8098" x2="267.7147" y1="458.6657" y2="458.6657" /><line stroke="blue" stroke-width="4" x1="267.7147" x2="267.7147" y1="458.6657" y2="464.5706" /><line stroke="blue" stroke-width="4" x1="267.7147" x2="273.6196" y1="464.5706" y2="464.5706" /><line stroke="blue" stroke-width="4" x1="273.6196" x2="273.6196" y1="464.5706" y2="470.4755" /><line stroke="blue" stroke-width="4" x1="273.6196" x2="279.5245" y1="470.4755" y2="470.4755" /><line stroke="blue" stroke-width="4" x1="279.5245" x2="279.5245" y1="470.4755" y2="464.5706" /><line stroke="blue" stroke-width="4" x1="279.5245" x2="285.4294" y1="464.5706" y2="464.5706" /><line stroke="blue" stroke-width="4" x1="285.4294" x2="285.4294" y1="464.5706" y2="458.6657" /><line stroke="blue" stroke-width="4" x1="285.4294" x2="291.3343" y1="458.6657" y2="458.6657" /><line stroke="blue" stroke-width="4" x1="291.3343" x2="291.3343" y1="458.6657" y2="452.7608" /><line stroke="blue" stroke-width="4" x1="291.3343" x2="285.4294" y1="452.7608" y2="452.7608" /><line stroke="blue" stroke-width="4" x1="285.4294" x2="285.4294" y1="452.7608" y2="446.8559" /><line stroke="blue" stroke-width="4" x1="285.4294" x2="291.3343" y1="446.8559" y2="446.8559" /><line stroke="blue" stroke-width="4" x1="291.3343" x2="291.3343" y1="446.8559" y2="452.7608" /><line stroke="blue" stroke-width="4" x1="291.3343" x2="297.2392" y1="452.7608" y2="452.7608" /><line stroke="blue" stroke-width="4" x1="297.2392" x2="297.2392" y1="452.7608" y2="446.8559" /><line stroke="blue" stroke-width="4" x1="297.2392" x2="303.1441" y1="446.8559" y2="446.8559" /><line stroke="blue" stroke-width="4" x1="303.1441" x2="303.1441" y1="446.8559" y2="440.951" /><line stroke="blue" stroke-width="4" x1="303.1441" x2="309.049" y1="440.951" y2="440.951" /><line stroke="blue" stroke-width="4" x1="309.049" x2="309.049" y1="440.951" y2="435.0461" /><line stroke="blue" stroke-width="4" x1="309.049" x2="303.1441" y1="435.0461" y2="435.0461" /><line stroke="blue" stroke-width="4" x1="303.1441" x2="303.1441" y1="435.0461" y2="429.1412" /><line stroke="blue" stroke-width="4" x1="303.1441" x2="309.049" y1="429.1412" y2="429.1412" /><line stroke="blue" stroke-width="4" x1="309.049" x2="309.049" y1="429.1412" y2="435.0461" /><line stroke="blue" stroke-width="4" x1="309.049" x2="314.9539" y1="435.0461" y2="435.0461" /><line stroke="blue" stroke-width="4" x1="314.9539" x2="314.9539" y1="435.0461" y2="429.1412" /><line stroke="blue" stroke-width="4" x1="314.9539" x2="320.8588" y1="429.1412" y2="429.1412" /><line stroke="blue" stroke-width="4" x1="320.8588" x2="320.8588" y1="429.1412" y2="423.2363" /><line stroke="blue" stroke-width="4" x1="320.8588" x2="326.7637" y1="423.2363" y2="423.2363" /><line stroke="blue" stroke-width="4" x1="326.7637" x2="326.7637" y1="423.2363" y2="417.33140000000003" /><line stroke="blue" stroke-width="4" x1="326.7637" x2="320.8588" y1="417.33140000000003" y2="417.33140000000003" /><line stroke="blue" stroke-width="4" x1="320.8588" x2="320.8588" y1="417.33140000000003" y2="411.42650000000003" /><line stroke="blue" stroke-width="4" x1="320.8588" x2="314.9539" y1="411.42650000000003" y2="411.42650000000003" /><line stroke="blue" stroke-width="4" x1="314.9539" x2="314.9539" y1="411.42650000000003" y2="405.52160000000003" /><line stroke="blue" stroke-width="4" x1="314.9539" x2="309.049" y1="405.52160000000003" y2="405.52160000000003" /><line stroke="blue" stroke-width="4" x1="309.049" x2="309.049" y1="405.52160000000003" y2="411.42650000000003" /><line stroke="blue" stroke-width="4" x1="309.049" x2="303.1441" y1="411.42650000000003" y2="411.42650000000003" /><line stroke="blue" stroke-width="4" x1="303.1441" x2="303.1441" y1="411.42650000000003" y2="405.52160000000003" /><line stroke="blue" stroke-width="4" x1="303.1441" x2="309.049" y1="405.52160000000003" y2="405.52160000000003" /><line stroke="blue" stroke-width="4" x1="309.049" x2="309.049" y1="405.52160000000003" y2="399.61670000000004" /><line stroke="blue" stroke-width="4" x1="309.049" x2="303.1441" y1="399.61670000000004" y2="399.61670000000004" /><line stroke="blue" stroke-width="4" x1="303.1441" x2="303.1441" y1="399.61670000000004" y2="393.71180000000004" /><line stroke="blue" stroke-width="4" x1="303.1441" x2="297.2392" y1="393.71180000000004" y2="393.71180000000004" /><line stroke="blue" stroke-width="4" x1="297.2392" x2="297.2392" y1="393.71180000000004" y2="387.80690000000004" /><line stroke="blue" stroke-width="4" x1="297.2392" x2="291.3343" y1="387.80690000000004" y2="387.80690000000004" /><line stroke="blue" stroke-width="4" x1="291.3343" x2="291.3343" y1="387.80690000000004" y2="393.71180000000004" /><line stroke="blue" stroke-width="4" x1="291.3343" x2="285.4294" y1="393.71180000000004" y2="393.71180000000004" /><line stroke="blue" stroke-width="4" x1="285.4294" x2="285.4294" y1="393.71180000000004" y2="387.80690000000004" /><line stroke="blue" stroke-width="4" x1="285.4294" x2="291.3343" y1="387.80690000000004" y2="387.80690000000004" /><line stroke="blue" stroke-width="4" x1="291.3343" x2="291.3343" y1="387.80690000000004" y2="381.90200000000004" /><line stroke="blue" stroke-width="4" x1="291.3343" x2="285.4294" y1="381.90200000000004" y2="381.90200000000004" /><line stroke="blue" stroke-width="4" x1="285.4294" x2="285.4294" y1="381.90200000000004" y2="375.99710000000005" /><line stroke="blue" stroke-width="4" x1="285.4294" x2="279.5245" y1="375.99710000000005" y2="375.99710000000005" /><line stroke="blue" stroke-width="4" x1="279.5245" x2="279.5245" y1="375.99710000000005" y2="370.09220000000005" /><line stroke="blue" stroke-width="4" x1="279.5245" x2="273.6196" y1="370.09220000000005" y2="370.09220000000005" /><line stroke="blue" stroke-width="4" x1="273.6196" x2="273.6196" y1="370.09220000000005" y2="375.99710000000005" /><line stroke="blue" stroke-width="4" x1="273.6196" x2="267.7147" y1="375.99710000000005" y2="375.99710000000005" /><line stroke="blue" stroke-width="4" x1="267.7147" x2="267.7147" y1="375.99710000000005" y2="381.90200000000004" /><line stroke="blue" stroke-width="4" x1="267.7147" x2="261.8098" y1="381.90200000000004" y2="381.90200000000004" /><line stroke="blue" stroke-width="4" x1="261.8098" x2="261.8098" y1="381.90200000000004" y2="387.80690000000004" /><line stroke="blue" stroke-width="4" x1="261.8098" x2="267.7147" y1="387.80690000000004" y2="387.80690000000004" /><line stroke="blue" stroke-width="4" x1="267.7147" x2="267.7147" y1="387.80690000000004" y2="393.71180000000004" /><line stroke="blue" stroke-width="4" x1="267.7147" x2="261.8098" y1="393.71180000000004" y2="393.71180000000004" /><line stroke="blue" stroke-width="4" x1="261.8098" x2="261.8098" y1="393.71180000000004" y2="387.80690000000004" /><line stroke="blue" stroke-width="4" x1="261.8098" x2="255.9049" y1="387.80690000000004" y2="387.80690000000004" /><line stroke="blue" stroke-width="4" x1="255.9049" x2="255.9049" y1="387.80690000000004" y2="393.71180000000004" /><line stroke="blue" stroke-width="4" x1="255.9049" x2="250.0" y1="393.71180000000004" y2="393.71180000000004" /><line stroke="blue" stroke-width="4" x1="250.0" x2="250.0" y1="393.71180000000004" y2="387.80690000000004" /><line stroke="blue" stroke-width="4" x1="250.0" x2="255.9049" y1="387.80690000000004" y2="387.80690000000004" /><line stroke="blue" stroke-width="4" x1="255.9049" x2="255.9049" y1="387.80690000000004" y2="381.90200000000004" /><line stroke="blue" stroke-width="4" x1="255.9049" x2="250.0" y1="381.90200000000004" y2="381.90200000000004" /><line stroke="blue" stroke-width="4" x1="250.0" x2="250.0" y1="381.90200000000004" y2="375.99710000000005" /><line stroke="blue" stroke-width="4" x1="250.0" x2="255.9049" y1="375.99710000000005" y2="375.99710000000005" /><line stroke="blue" stroke-width="4" x1="255.9049" x2="255.9049" y1="375.99710000000005" y2="381.90200000000004" /><line stroke="blue" stroke-width="4" x1="255.9049" x2="261.8098" y1="381.90200000000004" y2="381.90200000000004" /><line stroke="blue" stroke-width="4" x1="261.8098" x2="261.8098" y1="381.90200000000004" y2="375.99710000000005" /><line stroke="blue" stroke-width="4" x1="261.8098" x2="267.7147" y1="375.99710000000005" y2="375.99710000000005" /><line stroke="blue" stroke-width="4" x1="267.7147" x2="267.7147" y1="375.99710000000005" y2="370.09220000000005" /><line stroke="blue" stroke-width="4" x1="267.7147" x2="273.6196" y1="370.09220000000005" y2="370.09220000000005" /><line stroke="blue" stroke-width="4" x1="273.6196" x2="273.6196" y1="370.09220000000005" y2="364.18730000000005" /><line stroke="blue" stroke-width="4" x1="273.6196" x2="267.7147" y1="364.18730000000005" y2="364.18730000000005" /><line stroke="blue" stroke-width="4" x1="267.7147" x2="267.7147" y1="364.18730000000005" y2="358.28240000000005" /><line stroke="blue" stroke-width="4" x1="267.7147" x2="261.8098" y1="358.28240000000005" y2="358.28240000000005" /><line stroke="blue" stroke-width="4" x1="261.8098" x2="261.8098" y1="358.28240000000005" y2="352.37750000000005" /><line stroke="blue" stroke-width="4" x1="261.8098" x2="255.9049" y1="352.37750000000005" y2="352.37750000000005" /><line stroke="blue" stroke-width="4" x1="255.9049" x2="255.9049" y1="352.37750000000005" y2="358.28240000000005" /><line stroke="blue" stroke-width="4" x1="255.9049" x2="250.0" y1="358.28240000000005" y2="358.28240000000005" /><line stroke="blue" stroke-width="4" x1="250.0" x2="250.0" y1="358.28240000000005" y2="352.37750000000005" /><line stroke="blue" stroke-width="4" x1="250.0" x2="255.9049" y1="352.37750000000005" y2="352.37750000000005" /><line stroke="blue" stroke-width="4" x1="255.9049" x2="255.9049" y1="352.37750000000005" y2="346.47260000000006" /><line stroke="blue" stroke-width="4" x1="255.9049" x2="250.0" y1="346.47260000000006" y2="346.47260000000006" /><line stroke="blue" stroke-width="4" x1="250.0" x2="250.0" y1="346.47260000000006" y2="340.56770000000006" /><line stroke="blue" stroke-width="4" x1="250.0" x2="255.9049" y1="340.56770000000006" y2="340.56770000000006" /><line stroke="blue" stroke-width="4" x1="255.9049" x2="255.9049" y1="340.56770000000006" y2="346.47260000000006" /><line stroke="blue" stroke-width="4" x1="255.9049" x2="261.8098" y1="346.47260000000006" y2="346.47260000000006" /><line stroke="blue" stroke-width="4" x1="261.8098" x2="261.8098" y1="346.47260000000006" y2="340.56770000000006" /><line stroke="blue" stroke-width="4" x1="261.8098" x2="267.7147" y1="340.56770000000006" y2="340.56770000000006" /><line stroke="blue" stroke-width="4" x1="267.7147" x2="267.7147" y1="340.56770000000006" y2="346.47260000000006" /><line stroke="blue" stroke-width="4" x1="267.7147" x2="261.8098" y1="346.47260000000006" y2="346.47260000000006" /><line stroke="blue" stroke-width="4" x1="261.8098" x2="261.8098" y1="346.47260000000006" y2="352.37750000000005" /><line stroke="blue" stroke-width="4" x1="261.8098" x2="267.7147" y1="352.37750000000005" y2="352.37750000000005" /><line stroke="blue" stroke-width="4" x1="267.7147" x2="267.7147" y1="352.37750000000005" y2="358.28240000000005" /><line stroke="blue" stroke-width="4" x1="267.7147" x2="273.6196" y1="358.28240000000005" y2="358.28240000000005" /><line stroke="blue" stroke-width="4" x1="273.6196" x2="273.6196" y1="358.28240000000005" y2="364.18730000000005" /><line stroke="blue" stroke-width="4" x1="273.6196" x2="279.5245" y1="364.18730000000005" y2="364.18730000000005" /><line stroke="blue" stroke-width="4" x1="279.5245" x2="279.5245" y1="364.18730000000005" y2="358.28240000000005" /><line stroke="blue" stroke-width="4" x1="279.5245" x2="285.4294" y1="358.28240000000005" y2="358.28240000000005" /><line stroke="blue" stroke-width="4" x1="285.4294" x2="285.4294" y1="358.28240000000005" y2="352.37750000000005" /><line stroke="blue" stroke-width="4" x1="285.4294" x2="291.3343" y1="352.37750000000005" y2="352.37750000000005" /><line stroke="blue" stroke-width="4" x1="291.3343" x2="291.3343" y1="352.37750000000005" y2="346.47260000000006" /><line stroke="blue" stroke-width="4" x1="291.3343" x2="285.4294" y1="346.47260000000006" y2="346.47260000000006" /><line stroke="blue" stroke-width="4" x1="285.4294" x2="285.4294" y1="346.47260000000006" y2="340.56770000000006" /><line stroke="blue" stroke-width="4" x1="285.4294" x2="291.3343" y1="340.56770000000006" y2="340.56770000000006" /><line stroke="blue" stroke-width="4" x1="291.3343" x2="291.3343" y1="340.56770000000006" y2="346.47260000000006" /><line stroke="blue" stroke-width="4" x1="291.3343" x2="297.2392" y1="346.47260000000006" y2="346.47260000000006" /><line stroke="blue" stroke-width="4" x1="297.2392" x2="297.2392" y1="346.47260000000006" y2="340.56770000000006" /><line stroke="blue" stroke-width="4" x1="297.2392" x2="303.1441" y1="340.56770000000006" y2="340.56770000000006" /><line stroke="blue" stroke-width="4" x1="303.1441" x2="303.1441" y1="340.56770000000006" y2="346.47260000000006" /><line stroke="blue" stroke-width="4" x1="303.1441" x2="297.2392" y1="346.47260000000006" y2="346.47260000000006" /><line stroke="blue" stroke-width="4" x1="297.2392" x2="297.2392" y1="346.47260000000006" y2="352.37750000000005" /><line stroke="blue" stroke-width="4" x1="297.2392" x2="303.1441" y1="352.37750000000005" y2="352.37750000000005" /><line stroke="blue" stroke-width="4" x1="303.1441" x2="303.1441" y1="352.37750000000005" y2="358.28240000000005" /><line stroke="blue" stroke-width="4" x1="303.1441" x2="297.2392" y1="358.28240000000005" y2="358.28240000000005" /><line stroke="blue" stroke-width="4" x1="297.2392" x2="297.2392" y1="358.28240000000005" y2="352.37750000000005" /><line stroke="blue" stroke-width="4" x1="297.2392" x2="291.3343" y1="352.37750000000005" y2="352.37750000000005" /><line stroke="blue" stroke-width="4" x1="291.3343" x2="291.3343" y1="352.37750000000005" y2="358.28240000000005" /><line stroke="blue" stroke-width="4" x1="291.3343" x2="285.4294" y1="358.28240000000005" y2="358.28240000000005" /><line stroke="blue" stroke-width="4" x1="285.4294" x2="285.4294" y1="358.28240000000005" y2="364.18730000000005" /><line stroke="blue" stroke-width="4" x1="285.4294" x2="279.5245" y1="364.18730000000005" y2="364.18730000000005" /><line stroke="blue" stroke-width="4" x1="279.5245" x2="279.5245" y1="364.18730000000005" y2="370.09220000000005" /><line stroke="blue" stroke-width="4" x1="279.5245" x2="285.4294" y1="370.09220000000005" y2="370.09220000000005" /><line stroke="blue" stroke-width="4" x1="285.4294" x2="285.4294" y1="370.09220000000005" y2="375.99710000000005" /><line stroke="blue" stroke-width="4" x1="285.4294" x2="291.3343" y1="375.99710000000005" y2="375.99710000000005" /><line stroke="blue" stroke-width="4" x1="291.3343" x2="291.3343" y1="375.99710000000005" y2="381.90200000000004" /><line stroke="blue" stroke-width="4" x1="291.3343" x2="297.2392" y1="381.90200000000004" y2="381.90200000000004" /><line stroke="blue" stroke-width="4" x1="297.2392" x2="297.2392" y1="381.90200000000004" y2="375.99710000000005" /><line stroke="blue" stroke-width="4" x1="297.2392" x2="303.1441" y1="375.99710000000005" y2="375.99710000000005" /><line stroke="blue" stroke-width="4" x1="303.1441" x2="303.1441" y1="375.99710000000005" y2="381.90200000000004" /><line stroke="blue" stroke-width="4" x1="303.1441" x2="297.2392" y1="381.90200000000004" y2="381.90200000000004" /><line stroke="blue" stroke-width="4" x1="297.2392" x2="297.2392" y1="381.90200000000004" y2="387.80690000000004" /><line stroke="blue" stroke-width="4" x1="297.2392" x2="303.1441" y1="387.80690000000004" y2="387.80690000000004" /><line stroke="blue" stroke-width="4" x1="303.1441" x2="303.1441" y1="387.80690000000004" y2="393.71180000000004" /><line stroke="blue" stroke-width="4" x1="303.1441" x2="309.049" y1="393.71180000000004" y2="393.71180000000004" /><line stroke="blue" stroke-width="4" x1="309.049" x2="309.049" y1="393.71180000000004" y2="399.61670000000004" /><line stroke="blue" stroke-width="4" x1="309.049" x2="314.9539" y1="399.61670000000004" y2="399.61670000000004" /><line stroke="blue" stroke-width="4" x1="314.9539" x2="314.9539" y1="399.61670000000004" y2="393.71180000000004" /><line stroke="blue" stroke-width="4" x1="314.9539" x2="320.8588" y1="393.71180000000004" y2="393.71180000000004" /><line stroke="blue" stroke-width="4" x1="320.8588" x2="320.8588" y1="393.71180000000004" y2="399.61670000000004" /><line stroke="blue" stroke-width="4" x1="320.8588" x2="314.9539" y1="399.61670000000004" y2="399.61670000000004" /><line stroke="blue" stroke-width="4" x1="314.9539" x2="314.9539" y1="399.61670000000004" y2="405.52160000000003" /><line stroke="blue" stroke-width="4" x1="314.9539" x2="320.8588" y1="405.52160000000003" y2="405.52160000000003" /><line stroke="blue" stroke-width="4" x1="320.8588" x2="320.8588" y1="405.52160000000003" y2="411.42650000000003" /><line stroke="blue" stroke-width="4" x1="320.8588" x2="326.7637" y1="411.42650000000003" y2="411.42650000000003" /><line stroke="blue" stroke-width="4" x1="326.7637" x2="326.7637" y1="411.42650000000003" y2="417.33140000000003" /><line stroke="blue" stroke-width="4" x1="326.7637" x2="332.66859999999997" y1="417.33140000000003" y2="417.33140000000003" /><line stroke="blue" stroke-width="4" x1="332.66859999999997" x2="332.66859999999997" y1="417.33140000000003" y2="411.42650000000003" /><line stroke="blue" stroke-width="4" x1="332.66859999999997" x2="338.57349999999997" y1="411.42650000000003" y2="411.42650000000003" /><line stroke="blue" stroke-width="4" x1="338.57349999999997" x2="338.57349999999997" y1="411.42650000000003" y2="405.52160000000003" /><line stroke="blue" stroke-width="4" x1="338.57349999999997" x2="344.47839999999997" y1="405.52160000000003" y2="405.52160000000003" /><line stroke="blue" stroke-width="4" x1="344.47839999999997" x2="344.47839999999997" y1="405.52160000000003" y2="399.61670000000004" /><line stroke="blue" stroke-width="4" x1="344.47839999999997" x2="338.57349999999997" y1="399.61670000000004" y2="399.61670000000004" /><line stroke="blue" stroke-width="4" x1="338.57349999999997" x2="338.57349999999997" y1="399.61670000000004" y2="393.71180000000004" /><line stroke="blue" stroke-width="4" x1="338.57349999999997" x2="344.47839999999997" y1="393.71180000000004" y2="393.71180000000004" /><line stroke="blue" stroke-width="4" x1="344.47839999999997" x2="344.47839999999997" y1="393.71180000000004" y2="399.61670000000004" /><line stroke="blue" stroke-width="4" x1="344.47839999999997" x2="350.38329999999996" y1="399.61670000000004" y2="399.61670000000004" /><line stroke="blue" stroke-width="4" x1="350.38329999999996" x2="350.38329999999996" y1="399.61670000000004" y2="393.71180000000004" /><line stroke="blue" stroke-width="4" x1="350.38329999999996" x2="356.28819999999996" y1="393.71180000000004" y2="393.71180000000004" /><line stroke="blue" stroke-width="4" x1="356.28819999999996" x2="356.28819999999996" y1="393.71180000000004" y2="387.80690000000004" /><line stroke="blue" stroke-width="4" x1="356.28819999999996" x2="362.19309999999996" y1="387.80690000000004" y2="387.80690000000004" /><line stroke="blue" stroke-width="4" x1="362.19309999999996" x2="362.19309999999996" y1="387.80690000000004" y2="381.90200000000004" /><line stroke="blue" stroke-width="4" x1="362.19309999999996" x2="356.28819999999996" y1="381.90200000000004" y2="381.90200000000004" /><line stroke="blue" stroke-width="4" x1="356.28819999999996" x2="356.28819999999996" y1="381.90200000000004" y2="375.99710000000005" /><line stroke="blue" stroke-width="4" x1="356.28819999999996" x2="362.19309999999996" y1="375.99710000000005" y2="375.99710000000005" /><line stroke="blue" stroke-width="4" x1="362.19309999999996" x2="362.19309999999996" y1="375.99710000000005" y2="381.90200000000004" /><line stroke="blue" stroke-width="4" x1="362.19309999999996" x2="368.09799999999996" y1="381.90200000000004" y2="381.90200000000004" /><line stroke="blue" stroke-width="4" x1="368.09799999999996" x2="368.09799999999996" y1="381.90200000000004" y2="375.99710000000005" /><line stroke="blue" stroke-width="4" x1="368.09799999999996" x2="374.00289999999995" y1="375.99710000000005" y2="375.99710000000005" /><line stroke="blue" stroke-width="4" x1="374.00289999999995" x2="374.00289999999995" y1="375.99710000000005" y2="370.09220000000005" /><line stroke="blue" stroke-width="4" x1="374.00289999999995" x2="379.90779999999995" y1="370.09220000000005" y2="370.09220000000005" /><line stroke="blue" stroke-width="4" x1="379.90779999999995" x2="379.90779999999995" y1="370.09220000000005" y2="364.18730000000005" /><line stroke="blue" stroke-width="4" x1="379.90779999999995" x2="374.00289999999995" y1="364.18730000000005" y2="364.18730000000005" /><line stroke="blue" stroke-width="4" x1="374.00289999999995" x2="374.00289999999995" y1="364.18730000000005" y2="358.28240000000005" /><line stroke="blue" stroke-width="4" x1="374.00289999999995" x2="368.09799999999996" y1="358.28240000000005" y2="358.28240000000005" /><line stroke="blue" stroke-width="4" x1="368.09799999999996" x2="368.09799999999996" y1="358.28240000000005" y2="352.37750000000005" /><line stroke="blue" stroke-width="4" x1="368.09799999999996" x2="362.19309999999996" y1="352.37750000000005" y2="352.37750000000005" /><line stroke="blue" stroke-width="4" x1="362.19309999999996" x2="362.19309999999996" y1="352.37750000000005" y2="358.28240000000005" /><line stroke="blue" stroke-width="4" x1="362.19309999999996" x2="356.28819999999996" y1="358.28240000000005" y2="358.28240000000005" /><line stroke="blue" stroke-width="4" x1="356.28819999999996" x2="356.28819999999996" y1="358.28240000000005" y2="352.37750000000005" /><line stroke="blue" stroke-width="4" x1="356.28819999999996" x2="362.19309999999996" y1="352.37750000000005" y2="352.37750000000005" /><line stroke="blue" stroke-width="4" x1="362.19309999999996" x2="362.19309999999996" y1="352.37750000000005" y2="346.47260000000006" /><line stroke="blue" stroke-width="4" x1="362.19309999999996" x2="356.28819999999996" y1="346.47260000000006" y2="346.47260000000006" /><line stroke="blue" stroke-width="4" x1="356.28819999999996" x2="356.28819999999996" y1="346.47260000000006" y2="340.56770000000006" /><line stroke="blue" stroke-width="4" x1="356.28819999999996" x2="362.19309999999996" y1="340.56770000000006" y2="340.56770000000006" /><line stroke="blue" stroke-width="4" x1="362.19309999999996" x2="362.19309999999996" y1="340.56770000000006" y2="346.47260000000006" /><line stroke="blue" stroke-width="4" x1="362.19309999999996" x2="368.09799999999996" y1="346.47260000000006" y2="346.47260000000006" /><line stroke="blue" stroke-width="4" x1="368.09799999999996" x2="368.09799999999996" y1="346.47260000000006" y2="340.56770000000006" /><line stroke="blue" stroke-width="4" x1="368.09799999999996" x2="374.00289999999995" y1="340.56770000000006" y2="340.56770000000006" /><line stroke="blue" stroke-width="4" x1="374.00289999999995" x2="374.00289999999995" y1="340.56770000000006" y2="346.47260000000006" /><line stroke="blue" stroke-width="4" x1="374.00289999999995" x2="368.09799999999996" y1="346.47260000000006" y2="346.47260000000006" /><line stroke="blue" stroke-width="4" x1="368.09799999999996" x2="368.09799999999996" y1="346.47260000000006" y2="352.37750000000005" /><line stroke="blue" stroke-width="4" x1="368.09799999999996" x2="374.00289999999995" y1="352.37750000000005" y2="352.37750000000005" /><line stroke="blue" stroke-width="4" x1="374.00289999999995" x2="374.00289999999995" y1="352.37750000000005" y2="358.28240000000005" /><line stroke="blue" stroke-width="4" x1="374.00289999999995" x2="379.90779999999995" y1="358.28240000000005" y2="358.28240000000005" /><line stroke="blue" stroke-width="4" x1="379.90779999999995" x2="379.90779999999995" y1="358.28240000000005" y2="364.18730000000005" /><line stroke="blue" stroke-width="4" x1="379.90779999999995" x2="385.81269999999995" y1="364.18730000000005" y2="364.18730000000005" /><line stroke="blue" stroke-width="4" x1="385.81269999999995" x2="385.81269999999995" y1="364.18730000000005" y2="358.28240000000005" /><line stroke="blue" stroke-width="4" x1="385.81269999999995" x2="391.71759999999995" y1="358.28240000000005" y2="358.28240000000005" /><line stroke="blue" stroke-width="4" x1="391.71759999999995" x2="391.71759999999995" y1="358.28240000000005" y2="352.37750000000005" /><line stroke="blue" stroke-width="4" x1="391.71759999999995" x2="397.62249999999995" y1="352.37750000000005" y2="352.37750000000005" /><line stroke="blue" stroke-width="4" x1="397.62249999999995" x2="397.62249999999995" y1="352.37750000000005" y2="346.47260000000006" /><line stroke="blue" stroke-width="4" x1="397.62249999999995" x2="391.71759999999995" y1="346.47260000000006" y2="346.47260000000006" /><line stroke="blue" stroke-width="4" x1="391.71759999999995" x2="391.71759999999995" y1="346.47260000000006" y2="340.56770000000006" /><line stroke="blue" stroke-width="4" x1="391.71759999999995" x2="397.62249999999995" y1="340.56770000000006" y2="340.56770000000006" /><line stroke="blue" stroke-width="4" x1="397.62249999999995" x2="397.62249999999995" y1="340.56770000000006" y2="346.47260000000006" /><line stroke="blue" stroke-width="4" x1="397.62249999999995" x2="403.52739999999994" y1="346.47260000000006" y2="346.47260000000006" /><line stroke="blue" stroke-width="4" x1="403.52739999999994" x2="403.52739999999994" y1="346.47260000000006" y2="340.56770000000006" /><line stroke="blue" stroke-width="4" x1="403.52739999999994" x2="409.43229999999994" y1="340.56770000000006" y2="340.56770000000006" /><line stroke="blue" stroke-width="4" x1="409.43229999999994" x2="409.43229999999994" y1="340.56770000000006" y2="334.66280000000006" /><line stroke="blue" stroke-width="4" x1="409.43229999999994" x2="415.33719999999994" y1="334.66280000000006" y2="334.66280000000006" /><line stroke="blue" stroke-width="4" x1="415.33719999999994" x2="415.33719999999994" y1="334.66280000000006" y2="328.75790000000006" /><line stroke="blue" stroke-width="4" x1="415.33719999999994" x2="409.43229999999994" y1="328.75790000000006" y2="328.75790000000006" /><line stroke="blue" stroke-width="4" x1="409.43229999999994" x2="409.43229999999994" y1="328.75790000000006" y2="322.85300000000007" /><line stroke="blue" stroke-width="4" x1="409.43229999999994" x2="415.33719999999994" y1="322.85300000000007" y2="322.85300000000007" /><line stroke="blue" stroke-width="4" x1="415.33719999999994" x2="415.33719999999994" y1="322.85300000000007" y2="328.75790000000006" /><line stroke="blue" stroke-width="4" x1="415.33719999999994" x2="421.24209999999994" y1="328.75790000000006" y2="328.75790000000006" /><line stroke="blue" stroke-width="4" x1="421.24209999999994" x2="421.24209999999994" y1="328.75790000000006" y2="322.85300000000007" /><line stroke="blue" stroke-width="4" x1="421.24209999999994" x2="427.14699999999993" y1="322.85300000000007" y2="322.85300000000007" /><line stroke="blue" stroke-width="4" x1="427.14699999999993" x2="427.14699999999993" y1="322.85300000000007" y2="316.94810000000007" /><line stroke="blue" stroke-width="4" x1="427.14699999999993" x2="433.05189999999993" y1="316.94810000000007" y2="316.94810000000007" /><line stroke="blue" stroke-width="4" x1="433.05189999999993" x2="433.05189999999993" y1="316.94810000000007" y2="311.04320000000007" /><line stroke="blue" stroke-width="4" x1="433.05189999999993" x2="427.14699999999993" y1="311.04320000000007" y2="311.04320000000007" /><line stroke="blue" stroke-width="4" x1="427.14699999999993" x2="427.14699999999993" y1="311.04320000000007" y2="305.1383000000001" /><line stroke="blue" stroke-width="4" x1="427.14699999999993" x2="421.24209999999994" y1="305.1383000000001" y2="305.1383000000001" /><line stroke="blue" stroke-width="4" x1="421.24209999999994" x2="421.24209999999994" y1="305.1383000000001" y2="299.2334000000001" /><line stroke="blue" stroke-width="4" x1="421.24209999999994" x2="415.33719999999994" y1="299.2334000000001" y2="299.2334000000001" /><line stroke="blue" stroke-width="4" x1="415.33719999999994" x2="415.33719999999994" y1="299.2334000000001" y2="305.1383000000001" /><line stroke="blue" stroke-width="4" x1="415.33719999999994" x2="409.43229999999994" y1="305.1383000000001" y2="305.1383000000001" /><line stroke="blue" stroke-width="4" x1="409.43229999999994" x2="409.43229999999994" y1="305.1383000000001" y2="299.2334000000001" /><line stroke="blue" stroke-width="4" x1="409.43229999999994" x2="415.33719999999994" y1="299.2334000000001" y2="299.2334000000001" /><line stroke="blue" stroke-width="4" x1="415.33719999999994" x2="415.33719999999994" y1="299.2334000000001" y2="293.3285000000001" /><line stroke="blue" stroke-width="4" x1="415.33719999999994" x2="409.43229999999994" y1="293.3285000000001" y2="293.3285000000001" /><line stroke="blue" stroke-width="4" x1="409.43229999999994" x2="409.43229999999994" y1="293.3285000000001" y2="287.4236000000001" /><line stroke="blue" stroke-width="4" x1="409.43229999999994" x2="415.33719999999994" y1="287.4236000000001" y2="287.4236000000001" /><line stroke="blue" stroke-width="4" x1="415.33719999999994" x2="415.33719999999994" y1="287.4236000000001" y2="293.3285000000001" /><line stroke="blue" stroke-width="4" x1="415.33719999999994" x2="421.24209999999994" y1="293.3285000000001" y2="293.3285000000001" /><line stroke="blue" stroke-width="4" x1="421.24209999999994" x2="421.24209999999994" y1="293.3285000000001" y2="287.4236000000001" /><line stroke="blue" stroke-width="4" x1="421.24209999999994" x2="427.14699999999993" y1="287.4236000000001" y2="287.4236000000001" /><line stroke="blue" stroke-width="4" x1="427.14699999999993" x2="427.14699999999993" y1="287.4236000000001" y2="293.3285000000001" /><line stroke="blue" stroke-width="4" x1="427.14699999999993" x2="421.24209999999994" y1="293.3285000000001" y2="293.3285000000001" /><line stroke="blue" stroke-width="4" x1="421.24209999999994" x2="421.24209999999994" y1="293.3285000000001" y2="299.2334000000001" /><line stroke="blue" stroke-width="4" x1="421.24209999999994" x2="427.14699999999993" y1="299.2334000000001" y2="299.2334000000001" /><line stroke="blue" stroke-width="4" x1="427.14699999999993" x2="427.14699999999993" y1="299.2334000000001" y2="305.1383000000001" /><line stroke="blue" stroke-width="4" x1="427.14699999999993" x2="433.05189999999993" y1="305.1383000000001" y2="305.1383000000001" /><line stroke="blue" stroke-width="4" x1="433.05189999999993" x2="433.05189999999993" y1="305.1383000000001" y2="311.04320000000007" /><line stroke="blue" stroke-width="4" x1="433.05189999999993" x2="438.95679999999993" y1="311.04320000000007" y2="311.04320000000007" /><line stroke="blue" stroke-width="4" x1="438.95679999999993" x2="438.95679999999993" y1="311.04320000000007" y2="305.1383000000001" /><line stroke="blue" stroke-width="4" x1="438.95679999999993" x2="444.8616999999999" y1="305.1383000000001" y2="305.1383000000001" /><line stroke="blue" stroke-width="4" x1="444.8616999999999" x2="444.8616999999999" y1="305.1383000000001" y2="299.2334000000001" /><line stroke="blue" stroke-width="4" x1="444.8616999999999" x2="450.7665999999999" y1="299.2334000000001" y2="299.2334000000001" /><line stroke="blue" stroke-width="4" x1="450.7665999999999" x2="450.7665999999999" y1="299.2334000000001" y2="293.3285000000001" /><line stroke="blue" stroke-width="4" x1="450.7665999999999" x2="444.8616999999999" y1="293.3285000000001" y2="293.3285000000001" /><line stroke="blue" stroke-width="4" x1="444.8616999999999" x2="444.8616999999999" y1="293.3285000000001" y2="287.4236000000001" /><line stroke="blue" stroke-width="4" x1="444.8616999999999" x2="450.7665999999999" y1="287.4236000000001" y2="287.4236000000001" /><line stroke="blue" stroke-width="4" x1="450.7665999999999" x2="450.7665999999999" y1="287.4236000000001" y2="293.3285000000001" /><line stroke="blue" stroke-width="4" x1="450.7665999999999" x2="456.6714999999999" y1="293.3285000000001" y2="293.3285000000001" /><line stroke="blue" stroke-width="4" x1="456.6714999999999" x2="456.6714999999999" y1="293.3285000000001" y2="287.4236000000001" /><line stroke="blue" stroke-width="4" x1="456.6714999999999" x2="462.5763999999999" y1="287.4236000000001" y2="287.4236000000001" /><line stroke="blue" stroke-width="4" x1="462.5763999999999" x2="462.5763999999999" y1="287.4236000000001" y2="281.5187000000001" /><line stroke="blue" stroke-width="4" x1="462.5763999999999" x2="468.4812999999999" y1="281.5187000000001" y2="281.5187000000001" /><line stroke="blue" stroke-width="4" x1="468.4812999999999" x2="468.4812999999999" y1="281.5187000000001" y2="275.6138000000001" /><line stroke="blue" stroke-width="4" x1="468.4812999999999" x2="462.5763999999999" y1="275.6138000000001" y2="275.6138000000001" /><line stroke="blue" stroke-width="4" x1="462.5763999999999" x2="462.5763999999999" y1="275.6138000000001" y2="269.7089000000001" /><line stroke="blue" stroke-width="4" x1="462.5763999999999" x2="468.4812999999999" y1="269.7089000000001" y2="269.7089000000001" /><line stroke="blue" stroke-width="4" x1="468.4812999999999" x2="468.4812999999999" y1="269.7089000000001" y2="275.6138000000001" /><line stroke="blue" stroke-width="4" x1="468.4812999999999" x2="474.3861999999999" y1="275.6138000000001" y2="275.6138000000001" /><line stroke="blue" stroke-width="4" x1="474.3861999999999" x2="474.3861999999999" y1="275.6138000000001" y2="269.7089000000001" /><line stroke="blue" stroke-width="4" x1="474.3861999999999" x2="480.2910999999999" y1="269.7089000000001" y2="269.7089000000001" /><line stroke="blue" stroke-width="4" x1="480.2910999999999" x2="480.2910999999999" y1="269.7089000000001" y2="263.8040000000001" /><line stroke="blue" stroke-width="4" x1="480.2910999999999" x2="486.1959999999999" y1="263.8040000000001" y2="263.8040000000001" /><line stroke="blue" stroke-width="4" x1="486.1959999999999" x2="486.1959999999999" y1="263.8040000000001" y2="257.8991000000001" /><line stroke="blue" stroke-width="4" x1="486.1959999999999" x2="480.2910999999999" y1="257.8991000000001" y2="257.8991000000001" /><line stroke="blue" stroke-width="4" x1="480.2910999999999" x2="480.2910999999999" y1="257.8991000000001" y2="251.9942000000001" /><line stroke="blue" stroke-width="4" x1="480.2910999999999" x2="474.3861999999999" y1="251.9942000000001" y2="251.9942000000001" /><line stroke="blue" stroke-width="4" x1="474.3861999999999" x2="474.3861999999999" y1="251.9942000000001" y2="246.0893000000001" /><line stroke="blue" stroke-width="4" x1="474.3861999999999" x2="468.4812999999999" y1="246.0893000000001" y2="246.0893000000001" /><line stroke="blue" stroke-width="4" x1="468.4812999999999" x2="468.4812999999999" y1="246.0893000000001" y2="251.9942000000001" /><line stroke="blue" stroke-width="4" x1="468.4812999999999" x2="462.5763999999999" y1="251.9942000000001" y2="251.9942000000001" /><line stroke="blue" stroke-width="4" x1="462.5763999999999" x2="462.5763999999999" y1="251.9942000000001" y2="246.0893000000001" /><line stroke="blue" stroke-width="4" x1="462.5763999999999" x2="468.4812999999999" y1="246.0893000000001" y2="246.0893000000001" /><line stroke="blue" stroke-width="4" x1="468.4812999999999" x2="468.4812999999999" y1="246.0893000000001" y2="240.1844000000001" /><line stroke="blue" stroke-width="4" x1="468.4812999999999" x2="462.5763999999999" y1="240.1844000000001" y2="240.1844000000001" /><line stroke="blue" stroke-width="4" x1="462.5763999999999" x2="462.5763999999999" y1="240.1844000000001" y2="234.2795000000001" /><line stroke="blue" stroke-width="4" x1="462.5763999999999" x2="456.6714999999999" y1="234.2795000000001" y2="234.2795000000001" /><line stroke="blue" stroke-width="4" x1="456.6714999999999" x2="456.6714999999999" y1="234.2795000000001" y2="228.3746000000001" /><line stroke="blue" stroke-width="4" x1="456.6714999999999" x2="450.7665999999999" y1="228.3746000000001" y2="228.3746000000001" /><line stroke="blue" stroke-width="4" x1="450.7665999999999" x2="450.7665999999999" y1="228.3746000000001" y2="234.2795000000001" /><line stroke="blue" stroke-width="4" x1="450.7665999999999" x2="444.8616999999999" y1="234.2795000000001" y2="234.2795000000001" /><line stroke="blue" stroke-width="4" x1="444.8616999999999" x2="444.8616999999999" y1="234.2795000000001" y2="228.3746000000001" /><line stroke="blue" stroke-width="4" x1="444.8616999999999" x2="450.7665999999999" y1="228.3746000000001" y2="228.3746000000001" /><line stroke="blue" stroke-width="4" x1="450.7665999999999" x2="450.7665999999999" y1="228.3746000000001" y2="222.4697000000001" /><line stroke="blue" stroke-width="4" x1="450.7665999999999" x2="444.8616999999999" y1="222.4697000000001" y2="222.4697000000001" /><line stroke="blue" stroke-width="4" x1="444.8616999999999" x2="444.8616999999999" y1="222.4697000000001" y2="216.5648000000001" /><line stroke="blue" stroke-width="4" x1="444.8616999999999" x2="438.95679999999993" y1="216.5648000000001" y2="216.5648000000001" /><line stroke="blue" stroke-width="4" x1="438.95679999999993" x2="438.95679999999993" y1="216.5648000000001" y2="210.6599000000001" /><line stroke="blue" stroke-width="4" x1="438.95679999999993" x2="433.05189999999993" y1="210.6599000000001" y2="210.6599000000001" /><line stroke="blue" stroke-width="4" x1="433.05189999999993" x2="433.05189999999993" y1="210.6599000000001" y2="216.5648000000001" /><line stroke="blue" stroke-width="4" x1="433.05189999999993" x2="427.14699999999993" y1="216.5648000000001" y2="216.5648000000001" /><line stroke="blue" stroke-width="4" x1="427.14699999999993" x2="427.14699999999993" y1="216.5648000000001" y2="222.4697000000001" /><line stroke="blue" stroke-width="4" x1="427.14699999999993" x2="421.24209999999994" y1="222.4697000000001" y2="222.4697000000001" /><line stroke="blue" stroke-width="4" x1="421.24209999999994" x2="421.24209999999994" y1="222.4697000000001" y2="228.3746000000001" /><line stroke="blue" stroke-width="4" x1="421.24209999999994" x2="427.14699999999993" y1="228.3746000000001" y2="228.3746000000001" /><line stroke="blue" stroke-width="4" x1="427.14699999999993" x2="427.14699999999993" y1="228.3746000000001" y2="234.2795000000001" /><line stroke="blue" stroke-width="4" x1="427.14699999999993" x2="421.24209999999994" y1="234.2795000000001" y2="234.2795000000001" /><line stroke="blue" stroke-width="4" x1="421.24209999999994" x2="421.24209999999994" y1="234.2795000000001" y2="228.3746000000001" /><line stroke="blue" stroke-width="4" x1="421.24209999999994" x2="415.33719999999994" y1="228.3746000000001" y2="228.3746000000001" /><line stroke="blue" stroke-width="4" x1="415.33719999999994" x2="415.33719999999994" y1="228.3746000000001" y2="234.2795000000001" /><line stroke="blue" stroke-width="4" x1="415.33719999999994" x2="409.43229999999994" y1="234.2795000000001" y2="234.2795000000001" /><line stroke="blue" stroke-width="4" x1="409.43229999999994" x2="409.43229999999994" y1="234.2795000000001" y2="228.3746000000001" /><line stroke="blue" stroke-width="4" x1="409.43229999999994" x2="415.33719999999994" y1="228.3746000000001" y2="228.3746000000001" /><line stroke="blue" stroke-width="4" x1="415.33719999999994" x2="415.33719999999994" y1="228.3746000000001" y2="222.4697000000001" /><line stroke="blue" stroke-width="4" x1="415.33719999999994" x2="409.43229999999994" y1="222.4697000000001" y2="222.4697000000001" /><line stroke="blue" stroke-width="4" x1="409.43229999999994" x2="409.43229999999994" y1="222.4697000000001" y2="216.5648000000001" /><line stroke="blue" stroke-width="4" x1="409.43229999999994" x2="415.33719999999994" y1="216.5648000000001" y2="216.5648000000001" /><line stroke="blue" stroke-width="4" x1="415.33719999999994" x2="415.33719999999994" y1="216.5648000000001" y2="222.4697000000001" /><line stroke="blue" stroke-width="4" x1="415.33719999999994" x2="421.24209999999994" y1="222.4697000000001" y2="222.4697000000001" /><line stroke="blue" stroke-width="4" x1="421.24209999999994" x2="421.24209999999994" y1="222.4697000000001" y2="216.5648000000001" /><line stroke="blue" stroke-width="4" x1="421.24209999999994" x2="427.14699999999993" y1="216.5648000000001" y2="216.5648000000001" /><line stroke="blue" stroke-width="4" x1="427.14699999999993" x2="427.14699999999993" y1="216.5648000000001" y2="210.6599000000001" /><line stroke="blue" stroke-width="4" x1="427.14699999999993" x2="433.05189999999993" y1="210.6599000000001" y2="210.6599000000001" /><line stroke="blue" stroke-width="4" x1="433.05189999999993" x2="433.05189999999993" y1="210.6599000000001" y2="204.7550000000001" /><line stroke="blue" stroke-width="4" x1="433.05189999999993" x2="427.14699999999993" y1="204.7550000000001" y2="204.7550000000001" /><line stroke="blue" stroke-width="4" x1="427.14699999999993" x2="427.14699999999993" y1="204.7550000000001" y2="198.8501000000001" /><line stroke="blue" stroke-width="4" x1="427.14699999999993" x2="421.24209999999994" y1="198.8501000000001" y2="198.8501000000001" /><line stroke="blue" stroke-width="4" x1="421.24209999999994" x2="421.24209999999994" y1="198.8501000000001" y2="192.9452000000001" /><line stroke="blue" stroke-width="4" x1="421.24209999999994" x2="415.33719999999994" y1="192.9452000000001" y2="192.9452000000001" /><line stroke="blue" stroke-width="4" x1="415.33719999999994" x2="415.33719999999994" y1="192.9452000000001" y2="198.8501000000001" /><line stroke="blue" stroke-width="4" x1="415.33719999999994" x2="409.43229999999994" y1="198.8501000000001" y2="198.8501000000001" /><line stroke="blue" stroke-width="4" x1="409.43229999999994" x2="409.43229999999994" y1="198.8501000000001" y2="192.9452000000001" /><line stroke="blue" stroke-width="4" x1="409.43229999999994" x2="415.33719999999994" y1="192.9452000000001" y2="192.9452000000001" /><line stroke="blue" stroke-width="4" x1="415.33719999999994" x2="415.33719999999994" y1="192.9452000000001" y2="187.04030000000012" /><line stroke="blue" stroke-width="4" x1="415.33719999999994" x2="409.43229999999994" y1="187.04030000000012" y2="187.04030000000012" /><line stroke="blue" stroke-width="4" x1="409.43229999999994" x2="409.43229999999994" y1="187.04030000000012" y2="181.13540000000012" /><line stroke="blue" stroke-width="4" x1="409.43229999999994" x2="403.52739999999994" y1="181.13540000000012" y2="181.13540000000012" /><line stroke="blue" stroke-width="4" x1="403.52739999999994" x2="403.52739999999994" y1="181.13540000000012" y2="175.23050000000012" /><line stroke="blue" stroke-width="4" x1="403.52739999999994" x2="397.62249999999995" y1="175.23050000000012" y2="175.23050000000012" /><line stroke="blue" stroke-width="4" x1="397.62249999999995" x2="397.62249999999995" y1="175.23050000000012" y2="181.13540000000012" /><line stroke="blue" stroke-width="4" x1="397.62249999999995" x2="391.71759999999995" y1="181.13540000000012" y2="181.13540000000012" /><line stroke="blue" stroke-width="4" x1="391.71759999999995" x2="391.71759999999995" y1="181.13540000000012" y2="175.23050000000012" /><line stroke="blue" stroke-width="4" x1="391.71759999999995" x2="397.62249999999995" y1="175.23050000000012" y2="175.23050000000012" /><line stroke="blue" stroke-width="4" x1="397.62249999999995" x2="397.62249999999995" y1="175.23050000000012" y2="169.32560000000012" /><line stroke="blue" stroke-width="4" x1="397.62249999999995" x2="391.71759999999995" y1="169.32560000000012" y2="169.32560000000012" /><line stroke="blue" stroke-width="4" x1="391.71759999999995" x2="391.71759999999995" y1="169.32560000000012" y2="163.42070000000012" /><line stroke="blue" stroke-width="4" x1="391.71759999999995" x2="385.81269999999995" y1="163.42070000000012" y2="163.42070000000012" /><line stroke="blue" stroke-width="4" x1="385.81269999999995" x2="385.81269999999995" y1="163.42070000000012" y2="157.51580000000013" /><line stroke="blue" stroke-width="4" x1="385.81269999999995" x2="379.90779999999995" y1="157.51580000000013" y2="157.51580000000013" /><line stroke="blue" stroke-width="4" x1="379.90779999999995" x2="379.90779999999995" y1="157.51580000000013" y2="163.42070000000012" /><line stroke="blue" stroke-width="4" x1="379.90779999999995" x2="374.00289999999995" y1="163.42070000000012" y2="163.42070000000012" /><line stroke="blue" stroke-width="4" x1="374.00289999999995" x2="374.00289999999995" y1="163.42070000000012" y2="169.32560000000012" /><line stroke="blue" stroke-width="4" x1="374.00289999999995" x2="368.09799999999996" y1="169.32560000000012" y2="169.32560000000012" /><line stroke="blue" stroke-width="4" x1="368.09799999999996" x2="368.09799999999996" y1="169.32560000000012" y2="175.23050000000012" /><line stroke="blue" stroke-width="4" x1="368.09799999999996" x2="374.00289999999995" y1="175.23050000000012" y2="175.23050000000012" /><line stroke="blue" stroke-width="4" x1="374.00289999999995" x2="374.00289999999995" y1="175.23050000000012" y2="181.13540000000012" /><line stroke="blue" stroke-width="4" x1="374.00289999999995" x2="368.09799999999996" y1="181.13540000000012" y2="181.13540000000012" /><line stroke="blue" stroke-width="4" x1="368.09799999999996" x2="368.09799999999996" y1="181.13540000000012" y2="175.23050000000012" /><line stroke="blue" stroke-width="4" x1="368.09799999999996" x2="362.19309999999996" y1="175.23050000000012" y2="175.23050000000012" /><line stroke="blue" stroke-width="4" x1="362.19309999999996" x2="362.19309999999996" y1="175.23050000000012" y2="181.13540000000012" /><line stroke="blue" stroke-width="4" x1="362.19309999999996" x2="356.28819999999996" y1="181.13540000000012" y2="181.13540000000012" /><line stroke="blue" stroke-width="4" x1="356.28819999999996" x2="356.28819999999996" y1="181.13540000000012" y2="175.23050000000012" /><line stroke="blue" stroke-width="4" x1="356.28819999999996" x2="362.19309999999996" y1="175.23050000000012" y2="175.23050000000012" /><line stroke="blue" stroke-width="4" x1="362.19309999999996" x2="362.19309999999996" y1="175.23050000000012" y2="169.32560000000012" /><line stroke="blue" stroke-width="4" x1="362.19309999999996" x2="356.28819999999996" y1="169.32560000000012" y2="169.32560000000012" /><line stroke="blue" stroke-width="4" x1="356.28819999999996" x2="356.28819999999996" y1="169.32560000000012" y2="163.42070000000012" /><line stroke="blue" stroke-width="4" x1="356.28819999999996" x2="362.19309999999996" y1="163.42070000000012" y2="163.42070000000012" /><line stroke="blue" stroke-width="4" x1="362.19309999999996" x2="362.19309999999996" y1="163.42070000000012" y2="169.32560000000012" /><line stroke="blue" stroke-width="4" x1="362.19309999999996" x2="368.09799999999996" y1="169.32560000000012" y2="169.32560000000012" /><line stroke="blue" stroke-width="4" x1="368.09799999999996" x2="368.09799999999996" y1="169.32560000000012" y2="163.42070000000012" /><line stroke="blue" stroke-width="4" x1="368.09799999999996" x2="374.00289999999995" y1="163.42070000000012" y2="163.42070000000012" /><line stroke="blue" stroke-width="4" x1="374.00289999999995" x2="374.00289999999995" y1="163.42070000000012" y2="157.51580000000013" /><line stroke="blue" stroke-width="4" x1="374.00289999999995" x2="379.90779999999995" y1="157.51580000000013" y2="157.51580000000013" /><line stroke="blue" stroke-width="4" x1="379.90779999999995" x2="379.90779999999995" y1="157.51580000000013" y2="151.61090000000013" /><line stroke="blue" stroke-width="4" x1="379.90779999999995" x2="374.00289999999995" y1="151.61090000000013" y2="151.61090000000013" /><line stroke="blue" stroke-width="4" x1="374.00289999999995" x2="374.00289999999995" y1="151.61090000000013" y2="145.70600000000013" /><line stroke="blue" stroke-width="4" x1="374.00289999999995" x2="368.09799999999996" y1="145.70600000000013" y2="145.70600000000013" /><line stroke="blue" stroke-width="4" x1="368.09799999999996" x2="368.09799999999996" y1="145.70600000000013" y2="139.80110000000013" /><line stroke="blue" stroke-width="4" x1="368.09799999999996" x2="362.19309999999996" y1="139.80110000000013" y2="139.80110000000013" /><line stroke="blue" stroke-width="4" x1="362.19309999999996" x2="362.19309999999996" y1="139.80110000000013" y2="145.70600000000013" /><line stroke="blue" stroke-width="4" x1="362.19309999999996" x2="356.28819999999996" y1="145.70600000000013" y2="145.70600000000013" /><line stroke="blue" stroke-width="4" x1="356.28819999999996" x2="356.28819999999996" y1="145.70600000000013" y2="139.80110000000013" /><line stroke="blue" stroke-width="4" x1="356.28819999999996" x2="362.19309999999996" y1="139.80110000000013" y2="139.80110000000013" /><line stroke="blue" stroke-width="4" x1="362.19309999999996" x2="362.19309999999996" y1="139.80110000000013" y2="133.89620000000014" /><line stroke="blue" stroke-width="4" x1="362.19309999999996" x2="356.28819999999996" y1="133.89620000000014" y2="133.89620000000014" /><line stroke="blue" stroke-width="4" x1="356.28819999999996" x2="356.28819999999996" y1="133.89620000000014" y2="127.99130000000014" /><line stroke="blue" stroke-width="4" x1="356.28819999999996" x2="350.38329999999996" y1="127.99130000000014" y2="127.99130000000014" /><line stroke="blue" stroke-width="4" x1="350.38329999999996" x2="350.38329999999996" y1="127.99130000000014" y2="122.08640000000014" /><line stroke="blue" stroke-width="4" x1="350.38329999999996" x2="344.47839999999997" y1="122.08640000000014" y2="122.08640000000014" /><line stroke="blue" stroke-width="4" x1="344.47839999999997" x2="344.47839999999997" y1="122.08640000000014" y2="127.99130000000014" /><line stroke="blue" stroke-width="4" x1="344.47839999999997" x2="338.57349999999997" y1="127.99130000000014" y2="127.99130000000014" /><line stroke="blue" stroke-width="4" x1="338.57349999999997" x2="338.57349999999997" y1="127.99130000000014" y2="122.08640000000014" /><line stroke="blue" stroke-width="4" x1="338.57349999999997" x2="344.47839999999997" y1="122.08640000000014" y2="122.08640000000014" /><line stroke="blue" stroke-width="4" x1="344.47839999999997" x2="344.47839999999997" y1="122.08640000000014" y2="116.18150000000014" /><line stroke="blue" stroke-width="4" x1="344.47839999999997" x2="338.57349999999997" y1="116.18150000000014" y2="116.18150000000014" /><line stroke="blue" stroke-width="4" x1="338.57349999999997" x2="338.57349999999997" y1="116.18150000000014" y2="110.27660000000014" /><line stroke="blue" stroke-width="4" x1="338.57349999999997" x2="332.66859999999997" y1="110.27660000000014" y2="110.27660000000014" /><line stroke="blue" stroke-width="4" x1="332.66859999999997" x2="332.66859999999997" y1="110.27660000000014" y2="104.37170000000015" /><line stroke="blue" stroke-width="4" x1="332.66859999999997" x2="326.7637" y1="104.37170000000015" y2="104.37170000000015" /><line stroke="blue" stroke-width="4" x1="326.7637" x2="326.7637" y1="104.37170000000015" y2="110.27660000000014" /><line stroke="blue" stroke-width="4" x1="326.7637" x2="320.8588" y1="110.27660000000014" y2="110.27660000000014" /><line stroke="blue" stroke-width="4" x1="320.8588" x2="320.8588" y1="110.27660000000014" y2="116.18150000000014" /><line stroke="blue" stroke-width="4" x1="320.8588" x2="314.9539" y1="116.18150000000014" y2="116.18150000000014" /><line stroke="blue" stroke-width="4" x1="314.9539" x2="314.9539" y1="116.18150000000014" y2="122.08640000000014" /><line stroke="blue" stroke-width="4" x1="314.9539" x2="320.8588" y1="122.08640000000014" y2="122.08640000000014" /><line stroke="blue" stroke-width="4" x1="320.8588" x2="320.8588" y1="122.08640000000014" y2="127.99130000000014" /><line stroke="blue" stroke-width="4" x1="320.8588" x2="314.9539" y1="127.99130000000014" y2="127.99130000000014" /><line stroke="blue" stroke-width="4" x1="314.9539" x2="314.9539" y1="127.99130000000014" y2="122.08640000000014" /><line stroke="blue" stroke-width="4" x1="314.9539" x2="309.049" y1="122.08640000000014" y2="122.08640000000014" /><line stroke="blue" stroke-width="4" x1="309.049" x2="309.049" y1="122.08640000000014" y2="127.99130000000014" /><line stroke="blue" stroke-width="4" x1="309.049" x2="303.1441" y1="127.99130000000014" y2="127.99130000000014" /><line stroke="blue" stroke-width="4" x1="303.1441" x2="303.1441" y1="127.99130000000014" y2="133.89620000000014" /><line stroke="blue" stroke-width="4" x1="303.1441" x2="297.2392" y1="133.89620000000014" y2="133.89620000000014" /><line stroke="blue" stroke-width="4" x1="297.2392" x2="297.2392" y1="133.89620000000014" y2="139.80110000000013" /><line stroke="blue" stroke-width="4" x1="297.2392" x2="303.1441" y1="139.80110000000013" y2="139.80110000000013" /><line stroke="blue" stroke-width="4" x1="303.1441" x2="303.1441" y1="139.80110000000013" y2="145.70600000000013" /><line stroke="blue" stroke-width="4" x1="303.1441" x2="297.2392" y1="145.70600000000013" y2="145.70600000000013" /><line stroke="blue" stroke-width="4" x1="297.2392" x2="297.2392" y1="145.70600000000013" y2="139.80110000000013" /><line stroke="blue" stroke-width="4" x1="297.2392" x2="291.3343" y1="139.80110000000013" y2="139.80110000000013" /><line stroke="blue" stroke-width="4" x1="291.3343" x2="291.3343" y1="139.80110000000013" y2="145.70600000000013" /><line stroke="blue" stroke-width="4" x1="291.3343" x2="285.4294" y1="145.70600000000013" y2="145.70600000000013" /><line stroke="blue" stroke-width="4" x1="285.4294" x2="285.4294" y1="145.70600000000013" y2="151.61090000000013" /><line stroke="blue" stroke-width="4" x1="285.4294" x2="279.5245" y1="151.61090000000013" y2="151.61090000000013" /><line stroke="blue" stroke-width="4" x1="279.5245" x2="279.5245" y1="151.61090000000013" y2="157.51580000000013" /><line stroke="blue" stroke-width="4" x1="279.5245" x2="285.4294" y1="157.51580000000013" y2="157.51580000000013" /><line stroke="blue" stroke-width="4" x1="285.4294" x2="285.4294" y1="157.51580000000013" y2="163.42070000000012" /><line stroke="blue" stroke-width="4" x1="285.4294" x2="291.3343" y1="163.42070000000012" y2="163.42070000000012" /><line stroke="blue" stroke-width="4" x1="291.3343" x2="291.3343" y1="163.42070000000012" y2="169.32560000000012" /><line stroke="blue" stroke-width="4" x1="291.3343" x2="297.2392" y1="169.32560000000012" y2="169.32560000000012" /><line stroke="blue" stroke-width="4" x1="297.2392" x2="297.2392" y1="169.32560000000012" y2="163.42070000000012" /><line stroke="blue" stroke-width="4" x1="297.2392" x2="303.1441" y1="163.42070000000012" y2="163.42070000000012" /><line stroke="blue" stroke-width="4" x1="303.1441" x2="303.1441" y1="163.42070000000012" y2="169.32560000000012" /><line stroke="blue" stroke-width="4" x1="303.1441" x2="297.2392" y1="169.32560000000012" y2="169.32560000000012" /><line stroke="blue" stroke-width="4" x1="297.2392" x2="297.2392" y1="169.32560000000012" y2="175.23050000000012" /><line stroke="blue" stroke-width="4" x1="297.2392" x2="303.1441" y1="175.23050000000012" y2="175.23050000000012" /><line stroke="blue" stroke-width="4" x1="303.1441" x2="303.1441" y1="175.23050000000012" y2="181.13540000000012" /><line stroke="blue" stroke-width="4" x1="303.1441" x2="297.2392" y1="181.13540000000012" y2="181.13540000000012" /><line stroke="blue" stroke-width="4" x1="297.2392" x2="297.2392" y1="181.13540000000012" y2="175.23050000000012" /><line stroke="blue" stroke-width="4" x1="297.2392" x2="291.3343" y1="175.23050000000012" y2="175.23050000000012" /><line stroke="blue" stroke-width="4" x1="291.3343" x2="291.3343" y1="175.23050000000012" y2="181.13540000000012" /><line stroke="blue" stroke-width="4" x1="291.3343" x2="285.4294" y1="181.13540000000012" y2="181.13540000000012" /><line stroke="blue" stroke-width="4" x1="285.4294" x2="285.4294" y1="181.13540000000012" y2="175.23050000000012" /><line stroke="blue" stroke-width="4" x1="285.4294" x2="291.3343" y1="175.23050000000012" y2="175.23050000000012" /><line stroke="blue" stroke-width="4" x1="291.3343" x2="291.3343" y1="175.23050000000012" y2="169.32560000000012" /><line stroke="blue" stroke-width="4" x1="291.3343" x2="285.4294" y1="169.32560000000012" y2="169.32560000000012" /><line stroke="blue" stroke-width="4" x1="285.4294" x2="285.4294" y1="169.32560000000012" y2="163.42070000000012" /><line stroke="blue" stroke-width="4" x1="285.4294" x2="279.5245" y1="163.42070000000012" y2="163.42070000000012" /><line stroke="blue" stroke-width="4" x1="279.5245" x2="279.5245" y1="163.42070000000012" y2="157.51580000000013" /><line stroke="blue" stroke-width="4" x1="279.5245" x2="273.6196" y1="157.51580000000013" y2="157.51580000000013" /><line stroke="blue" stroke-width="4" x1="273.6196" x2="273.6196" y1="157.51580000000013" y2="163.42070000000012" /><line stroke="blue" stroke-width="4" x1="273.6196" x2="267.7147" y1="163.42070000000012" y2="163.42070000000012" /><line stroke="blue" stroke-width="4" x1="267.7147" x2="267.7147" y1="163.42070000000012" y2="169.32560000000012" /><line stroke="blue" stroke-width="4" x1="267.7147" x2="261.8098" y1="169.32560000000012" y2="169.32560000000012" /><line stroke="blue" stroke-width="4" x1="261.8098" x2="261.8098" y1="169.32560000000012" y2="175.23050000000012" /><line stroke="blue" stroke-width="4" x1="261.8098" x2="267.7147" y1="175.23050000000012" y2="175.23050000000012" /><line stroke="blue" stroke-width="4" x1="267.7147" x2="267.7147" y1="175.23050000000012" y2="181.13540000000012" /><line stroke="blue" stroke-width="4" x1="267.7147" x2="261.8098" y1="181.13540000000012" y2="181.13540000000012" /><line stroke="blue" stroke-width="4" x1="261.8098" x2="261.8098" y1="181.13540000000012" y2="175.23050000000012" /><line stroke="blue" stroke-width="4" x1="261.8098" x2="255.9049" y1="175.23050000000012" y2="175.23050000000012" /><line stroke="blue" stroke-width="4" x1="255.9049" x2="255.9049" y1="175.23050000000012" y2="181.13540000000012" /><line stroke="blue" stroke-width="4" x1="255.9049" x2="250.0" y1="181.13540000000012" y2="181.13540000000012" /><line stroke="blue" stroke-width="4" x1="250.0" x2="250.0" y1="181.13540000000012" y2="175.23050000000012" /><line stroke="blue" stroke-width="4" x1="250.0" x2="255.9049" y1="175.23050000000012" y2="175.23050000000012" /><line stroke="blue" stroke-width="4" x1="255.9049" x2="255.9049" y1="175.23050000000012" y2="169.32560000000012" /><line stroke="blue" stroke-width="4" x1="255.9049" x2="250.0" y1="169.32560000000012" y2="169.32560000000012" /><line stroke="blue" stroke-width="4" x1="250.0" x2="250.0" y1="169.32560000000012" y2="163.42070000000012" /><line stroke="blue" stroke-width="4" x1="250.0" x2="255.9049" y1="163.42070000000012" y2="163.42070000000012" /><line stroke="blue" stroke-width="4" x1="255.9049" x2="255.9049" y1="163.42070000000012" y2="169.32560000000012" /><line stroke="blue" stroke-width="4" x1="255.9049" x2="261.8098" y1="169.32560000000012" y2="169.32560000000012" /><line stroke="blue" stroke-width="4" x1="261.8098" x2="261.8098" y1="169.32560000000012" y2="163.42070000000012" /><line stroke="blue" stroke-width="4" x1="261.8098" x2="267.7147" y1="163.42070000000012" y2="163.42070000000012" /><line stroke="blue" stroke-width="4" x1="267.7147" x2="267.7147" y1="163.42070000000012" y2="157.51580000000013" /><line stroke="blue" stroke-width="4" x1="267.7147" x2="273.6196" y1="157.51580000000013" y2="157.51580000000013" /><line stroke="blue" stroke-width="4" x1="273.6196" x2="273.6196" y1="157.51580000000013" y2="151.61090000000013" /><line stroke="blue" stroke-width="4" x1="273.6196" x2="267.7147" y1="151.61090000000013" y2="151.61090000000013" /><line stroke="blue" stroke-width="4" x1="267.7147" x2="267.7147" y1="151.61090000000013" y2="145.70600000000013" /><line stroke="blue" stroke-width="4" x1="267.7147" x2="261.8098" y1="145.70600000000013" y2="145.70600000000013" /><line stroke="blue" stroke-width="4" x1="261.8098" x2="261.8098" y1="145.70600000000013" y2="139.80110000000013" /><line stroke="blue" stroke-width="4" x1="261.8098" x2="255.9049" y1="139.80110000000013" y2="139.80110000000013" /><line stroke="blue" stroke-width="4" x1="255.9049" x2="255.9049" y1="139.80110000000013" y2="145.70600000000013" /><line stroke="blue" stroke-width="4" x1="255.9049" x2="250.0" y1="145.70600000000013" y2="145.70600000000013" /><line stroke="blue" stroke-width="4" x1="250.0" x2="250.0" y1="145.70600000000013" y2="139.80110000000013" /><line stroke="blue" stroke-width="4" x1="250.0" x2="255.9049" y1="139.80110000000013" y2="139.80110000000013" /><line stroke="blue" stroke-width="4" x1="255.9049" x2="255.9049" y1="139.80110000000013" y2="133.89620000000014" /><line stroke="blue" stroke-width="4" x1="255.9049" x2="250.0" y1="133.89620000000014" y2="133.89620000000014" /><line stroke="blue" stroke-width="4" x1="250.0" x2="250.0" y1="133.89620000000014" y2="127.99130000000014" /><line stroke="blue" stroke-width="4" x1="250.0" x2="255.9049" y1="127.99130000000014" y2="127.99130000000014" /><line stroke="blue" stroke-width="4" x1="255.9049" x2="255.9049" y1="127.99130000000014" y2="133.89620000000014" /><line stroke="blue" stroke-width="4" x1="255.9049" x2="261.8098" y1="133.89620000000014" y2="133.89620000000014" /><line stroke="blue" stroke-width="4" x1="261.8098" x2="261.8098" y1="133.89620000000014" y2="127.99130000000014" /><line stroke="blue" stroke-width="4" x1="261.8098" x2="267.7147" y1="127.99130000000014" y2="127.99130000000014" /><line stroke="blue" stroke-width="4" x1="267.7147" x2="267.7147" y1="127.99130000000014" y2="133.89620000000014" /><line stroke="blue" stroke-width="4" x1="267.7147" x2="261.8098" y1="133.89620000000014" y2="133.89620000000014" /><line stroke="blue" stroke-width="4" x1="261.8098" x2="261.8098" y1="133.89620000000014" y2="139.80110000000013" /><line stroke="blue" stroke-width="4" x1="261.8098" x2="267.7147" y1="139.80110000000013" y2="139.80110000000013" /><line stroke="blue" stroke-width="4" x1="267.7147" x2="267.7147" y1="139.80110000000013" y2="145.70600000000013" /><line stroke="blue" stroke-width="4" x1="267.7147" x2="273.6196" y1="145.70600000000013" y2="145.70600000000013" /><line stroke="blue" stroke-width="4" x1="273.6196" x2="273.6196" y1="145.70600000000013" y2="151.61090000000013" /><line stroke="blue" stroke-width="4" x1="273.6196" x2="279.5245" y1="151.61090000000013" y2="151.61090000000013" /><line stroke="blue" stroke-width="4" x1="279.5245" x2="279.5245" y1="151.61090000000013" y2="145.70600000000013" /><line stroke="blue" stroke-width="4" x1="279.5245" x2="285.4294" y1="145.70600000000013" y2="145.70600000000013" /><line stroke="blue" stroke-width="4" x1="285.4294" x2="285.4294" y1="145.70600000000013" y2="139.80110000000013" /><line stroke="blue" stroke-width="4" x1="285.4294" x2="291.3343" y1="139.80110000000013" y2="139.80110000000013" /><line stroke="blue" stroke-width="4" x1="291.3343" x2="291.3343" y1="139.80110000000013" y2="133.89620000000014" /><line stroke="blue" stroke-width="4" x1="291.3343" x2="285.4294" y1="133.89620000000014" y2="133.89620000000014" /><line stroke="blue" stroke-width="4" x1="285.4294" x2="285.4294" y1="133.89620000000014" y2="127.99130000000014" /><line stroke="blue" stroke-width="4" x1="285.4294" x2="291.3343" y1="127.99130000000014" y2="127.99130000000014" /><line stroke="blue" stroke-width="4" x1="291.3343" x2="291.3343" y1="127.99130000000014" y2="133.89620000000014" /><line stroke="blue" stroke-width="4" x1="291.3343" x2="297.2392" y1="133.89620000000014" y2="133.89620000000014" /><line stroke="blue" stroke-width="4" x1="297.2392" x2="297.2392" y1="133.89620000000014" y2="127.99130000000014" /><line stroke="blue" stroke-width="4" x1="297.2392" x2="303.1441" y1="127.99130000000014" y2="127.99130000000014" /><line stroke="blue" stroke-width="4" x1="303.1441" x2="303.1441" y1="127.99130000000014" y2="122.08640000000014" /><line stroke="blue" stroke-width="4" x1="303.1441" x2="309.049" y1="122.08640000000014" y2="122.08640000000014" /><line stroke="blue" stroke-width="4" x1="309.049" x2="309.049" y1="122.08640000000014" y2="116.18150000000014" /><line stroke="blue" stroke-width="4" x1="309.049" x2="303.1441" y1="116.18150000000014" y2="116.18150000000014" /><line stroke="blue" stroke-width="4" x1="303.1441" x2="303.1441" y1="116.18150000000014" y2="110.27660000000014" /><line stroke="blue" stroke-width="4" x1="303.1441" x2="309.049" y1="110.27660000000014" y2="110.27660000000014" /><line stroke="blue" stroke-width="4" x1="309.049" x2="309.049" y1="110.27660000000014" y2="116.18150000000014" /><line stroke="blue" stroke-width="4" x1="309.049" x2="314.9539" y1="116.18150000000014" y2="116.18150000000014" /><line stroke="blue" stroke-width="4" x1="314.9539" x2="314.9539" y1="116.18150000000014" y2="110.27660000000014" /><line stroke="blue" stroke-width="4" x1="314.9539" x2="320.8588" y1="110.27660000000014" y2="110.27660000000014" /><line stroke="blue" stroke-width="4" x1="320.8588" x2="320.8588" y1="110.27660000000014" y2="104.37170000000015" /><line stroke="blue" stroke-width="4" x1="320.8588" x2="326.7637" y1="104.37170000000015" y2="104.37170000000015" /><line stroke="blue" stroke-width="4" x1="326.7637" x2="326.7637" y1="104.37170000000015" y2="98.46680000000015" /><line stroke="blue" stroke-width="4" x1="326.7637" x2="320.8588" y1="98.46680000000015" y2="98.46680000000015" /><line stroke="blue" stroke-width="4" x1="320.8588" x2="320.8588" y1="98.46680000000015" y2="92.56190000000015" /><line stroke="blue" stroke-width="4" x1="320.8588" x2="314.9539" y1="92.56190000000015" y2="92.56190000000015" /><line stroke="blue" stroke-width="4" x1="314.9539" x2="314.9539" y1="92.56190000000015" y2="86.65700000000015" /><line stroke="blue" stroke-width="4" x1="314.9539" x2="309.049" y1="86.65700000000015" y2="86.65700000000015" /><line stroke="blue" stroke-width="4" x1="309.049" x2="309.049" y1="86.65700000000015" y2="92.56190000000015" /><line stroke="blue" stroke-width="4" x1="309.049" x2="303.1441" y1="92.56190000000015" y2="92.56190000000015" /><line stroke="blue" stroke-width="4" x1="303.1441" x2="303.1441" y1="92.56190000000015" y2="86.65700000000015" /><line stroke="blue" stroke-width="4" x1="303.1441" x2="309.049" y1="86.65700000000015" y2="86.65700000000015" /><line stroke="blue" stroke-width="4" x1="309.049" x2="309.049" y1="86.65700000000015" y2="80.75210000000015" /><line stroke="blue" stroke-width="4" x1="309.049" x2="303.1441" y1="80.75210000000015" y2="80.75210000000015" /><line stroke="blue" stroke-width="4" x1="303.1441" x2="303.1441" y1="80.75210000000015" y2="74.84720000000016" /><line stroke="blue" stroke-width="4" x1="303.1441" x2="297.2392" y1="74.84720000000016" y2="74.84720000000016" /><line stroke="blue" stroke-width="4" x1="297.2392" x2="297.2392" y1="74.84720000000016" y2="68.94230000000016" /><line stroke="blue" stroke-width="4" x1="297.2392" x2="291.3343" y1="68.94230000000016" y2="68.94230000000016" /><line stroke="blue" stroke-width="4" x1="291.3343" x2="291.3343" y1="68.94230000000016" y2="74.84720000000016" /><line stroke="blue" stroke-width="4" x1="291.3343" x2="285.4294" y1="74.84720000000016" y2="74.84720000000016" /><line stroke="blue" stroke-width="4" x1="285.4294" x2="285.4294" y1="74.84720000000016" y2="68.94230000000016" /><line stroke="blue" stroke-width="4" x1="285.4294" x2="291.3343" y1="68.94230000000016" y2="68.94230000000016" /><line stroke="blue" stroke-width="4" x1="291.3343" x2="291.3343" y1="68.94230000000016" y2="63.03740000000016" /><line stroke="blue" stroke-width="4" x1="291.3343" x2="285.4294" y1="63.03740000000016" y2="63.03740000000016" /><line stroke="blue" stroke-width="4" x1="285.4294" x2="285.4294" y1="63.03740000000016" y2="57.132500000000164" /><line stroke="blue" stroke-width="4" x1="285.4294" x2="279.5245" y1="57.132500000000164" y2="57.132500000000164" /><line stroke="blue" stroke-width="4" x1="279.5245" x2="279.5245" y1="57.132500000000164" y2="51.227600000000166" /><line stroke="blue" stroke-width="4" x1="279.5245" x2="273.6196" y1="51.227600000000166" y2="51.227600000000166" /><line stroke="blue" stroke-width="4" x1="273.6196" x2="273.6196" y1="51.227600000000166" y2="57.132500000000164" /><line stroke="blue" stroke-width="4" x1="273.6196" x2="267.7147" y1="57.132500000000164" y2="57.132500000000164" /><line stroke="blue" stroke-width="4" x1="267.7147" x2="267.7147" y1="57.132500000000164" y2="63.03740000000016" /><line stroke="blue" stroke-width="4" x1="267.7147" x2="261.8098" y1="63.03740000000016" y2="63.03740000000016" /><line stroke="blue" stroke-width="4" x1="261.8098" x2="261.8098" y1="63.03740000000016" y2="68.94230000000016" /><line stroke="blue" stroke-width="4" x1="261.8098" x2="267.7147" y1="68.94230000000016" y2="68.94230000000016" /><line stroke="blue" stroke-width="4" x1="267.7147" x2="267.7147" y1="68.94230000000016" y2="74.84720000000016" /><line stroke="blue" stroke-width="4" x1="267.7147" x2="261.8098" y1="74.84720000000016" y2="74.84720000000016" /><line stroke="blue" stroke-width="4" x1="261.8098" x2="261.8098" y1="74.84720000000016" y2="68.94230000000016" /><line stroke="blue" stroke-width="4" x1="261.8098" x2="255.9049" y1="68.94230000000016" y2="68.94230000000016" /><line stroke="blue" stroke-width="4" x1="255.9049" x2="255.9049" y1="68.94230000000016" y2="74.84720000000016" /><line stroke="blue" stroke-width="4" x1="255.9049" x2="250.0" y1="74.84720000000016" y2="74.84720000000016" /><line stroke="blue" stroke-width="4" x1="250.0" x2="250.0" y1="74.84720000000016" y2="68.94230000000016" /><line stroke="blue" stroke-width="4" x1="250.0" x2="255.9049" y1="68.94230000000016" y2="68.94230000000016" /><line stroke="blue" stroke-width="4" x1="255.9049" x2="255.9049" y1="68.94230000000016" y2="63.03740000000016" /><line stroke="blue" stroke-width="4" x1="255.9049" x2="250.0" y1="63.03740000000016" y2="63.03740000000016" /><line stroke="blue" stroke-width="4" x1="250.0" x2="250.0" y1="63.03740000000016" y2="57.132500000000164" /><line stroke="blue" stroke-width="4" x1="250.0" x2="255.9049" y1="57.132500000000164" y2="57.132500000000164" /><line stroke="blue" stroke-width="4" x1="255.9049" x2="255.9049" y1="57.132500000000164" y2="63.03740000000016" /><line stroke="blue" stroke-width="4" x1="255.9049" x2="261.8098" y1="63.03740000000016" y2="63.03740000000016" /><line stroke="blue" stroke-width="4" x1="261.8098" x2="261.8098" y1="63.03740000000016" y2="57.132500000000164" /><line stroke="blue" stroke-width="4" x1="261.8098" x2="267.7147" y1="57.132500000000164" y2="57.132500000000164" /><line stroke="blue" stroke-width="4" x1="267.7147" x2="267.7147" y1="57.132500000000164" y2="51.227600000000166" /><line stroke="blue" stroke-width="4" x1="267.7147" x2="273.6196" y1="51.227600000000166" y2="51.227600000000166" /><line stroke="blue" stroke-width="4" x1="273.6196" x2="273.6196" y1="51.227600000000166" y2="45.32270000000017" /><line stroke="blue" stroke-width="4" x1="273.6196" x2="267.7147" y1="45.32270000000017" y2="45.32270000000017" /><line stroke="blue" stroke-width="4" x1="267.7147" x2="267.7147" y1="45.32270000000017" y2="39.41780000000017" /><line stroke="blue" stroke-width="4" x1="267.7147" x2="261.8098" y1="39.41780000000017" y2="39.41780000000017" /><line stroke="blue" stroke-width="4" x1="261.8098" x2="261.8098" y1="39.41780000000017" y2="33.51290000000017" /><line stroke="blue" stroke-width="4" x1="261.8098" x2="255.9049" y1="33.51290000000017" y2="33.51290000000017" /><line stroke="blue" stroke-width="4" x1="255.9049" x2="255.9049" y1="33.51290000000017" y2="39.41780000000017" /><line stroke="blue" stroke-width="4" x1="255.9049" x2="250.0" y1="39.41780000000017" y2="39.41780000000017" /><line stroke="blue" stroke-width="4" x1="250.0" x2="250.0" y1="39.41780000000017" y2="33.51290000000017" /><line stroke="blue" stroke-width="4" x1="250.0" x2="255.9049" y1="33.51290000000017" y2="33.51290000000017" /><line stroke="blue" stroke-width="4" x1="255.9049" x2="255.9049" y1="33.51290000000017" y2="27.60800000000017" /><line stroke="blue" stroke-width="4" x1="255.9049" x2="250.0" y1="27.60800000000017" y2="27.60800000000017" /><line stroke="blue" stroke-width="4" x1="250.0" x2="250.0" y1="27.60800000000017" y2="21.70310000000017" /></svg>